<?xml version="1.0" encoding="UTF-8" standalone="no"?>
<!DOCTYPE svg PUBLIC "-//W3C//DTD SVG 1.1//EN" "http://www.w3.org/Graphics/SVG/1.1/DTD/svg11.dtd">
<svg version="1.1" xmlns="http://www.w3.org/2000/svg" xmlns:xlink="http://www.w3.org/1999/xlink" preserveAspectRatio="xMidYMid meet" viewBox="2.6044283298135724 2.009832783525212 640.6372971865275 640.6372971865275" width="636.64" height="636.64"><defs><path d="M596.97 3.01C620.87 3.01 640.24 22.38 640.24 46.28C640.24 164.96 640.24 477.7 640.24 596.37C640.24 620.27 620.87 639.65 596.97 639.65C478.3 639.65 165.55 639.65 46.88 639.65C22.98 639.65 3.6 620.27 3.6 596.37C3.6 477.7 3.6 164.96 3.6 46.28C3.6 22.38 22.98 3.01 46.88 3.01C165.55 3.01 478.3 3.01 596.97 3.01Z" id="bkFxvb02h"></path><path d="M587.01 232.8C587.01 326.69 510.79 402.91 416.9 402.91C323.02 402.91 246.79 326.69 246.79 232.8C246.79 138.92 323.02 62.7 416.9 62.7C510.79 62.7 587.01 138.92 587.01 232.8Z" id="aaYbqQTEC"></path><path d="M260.22 477.52C260.22 521.17 224.78 556.61 181.14 556.61C137.49 556.61 102.05 521.17 102.05 477.52C102.05 433.87 137.49 398.44 181.14 398.44C224.78 398.44 260.22 433.87 260.22 477.52Z" id="d2QL5z6Tf"></path></defs><g><g><use xlink:href="#bkFxvb02h" opacity="1" fill="#a8dadc" fill-opacity="1"></use></g><g><use xlink:href="#aaYbqQTEC" opacity="1" fill="#e63946" fill-opacity="1"></use></g><g><use xlink:href="#d2QL5z6Tf" opacity="1" fill="#457b9d" fill-opacity="1"></use></g></g></svg>